<svg width="47" height="47" viewBox="0 0 47 47" fill="none" xmlns="http://www.w3.org/2000/svg">
<path d="M12.7159 11.2365C9.73927 11.4628 6.79741 12.7074 4.43001 14.744C3.62927 15.4229 3.4726 15.7363 3.69019 16.1366C3.77723 16.2846 4.13408 16.6589 4.48223 16.9635C6.17075 18.4431 8.49464 19.6181 10.7054 20.1142C11.7672 20.3492 12.1328 20.3318 12.3504 20.0533C12.4548 19.9228 12.5332 19.7139 12.5332 19.5833C12.5332 19.1394 12.3069 19.0002 11.1928 18.7565C9.1039 18.2952 7.16297 17.3639 5.65723 16.1105L5.3526 15.8581L5.57019 15.6231C5.69204 15.4926 6.13593 15.1531 6.57112 14.8659C9.08649 13.1774 11.8369 12.4376 14.8832 12.6378C17.0852 12.777 19.3046 13.5255 21.1585 14.7615C21.8722 15.2315 21.8722 15.2228 20.8452 15.4055C19.94 15.5709 18.2776 16.1366 17.2854 16.6241C12.6811 18.8783 9.52167 23.6305 9.25186 28.6787C9.20834 29.5839 9.21704 29.6535 9.40853 29.8885L9.60871 30.1409L10.7402 30.0887C13.0728 29.9929 15.4837 29.227 17.4769 27.9476C18.5387 27.26 18.7389 26.9118 18.3559 26.4244C18.0774 26.0676 17.7119 26.1198 16.9459 26.6159C15.2835 27.7039 13.2295 28.4437 11.2102 28.6787L10.7054 28.7309V28.3305C10.7054 28.1042 10.7837 27.5385 10.8795 27.0772C11.8978 22.0813 15.6317 18.1472 20.5145 16.9374C20.9845 16.8242 21.4893 16.7111 21.6459 16.685L21.9157 16.6328L21.3848 17.4335C18.6606 21.5068 18.1645 26.6681 20.0619 31.1505C20.645 32.5257 21.3326 33.6224 22.3945 34.8844C23.3606 36.0333 23.6217 36.0333 24.6052 34.9192C26.2502 33.0305 27.3817 30.724 27.8691 28.2783C28.0432 27.3905 28.0432 27.3296 27.9039 27.112C27.608 26.6594 27.0248 26.6072 26.7724 27.0076C26.7028 27.112 26.5635 27.5994 26.4678 28.0868C26.2241 29.2531 25.8498 30.2976 25.2667 31.429C24.7967 32.3342 23.7348 33.8574 23.5259 33.927C23.3606 33.9705 22.3422 32.5344 21.8113 31.4987C21.2804 30.4978 20.8104 29.1748 20.5667 28.0259C20.4448 27.4515 20.41 26.8944 20.41 25.5018C20.41 23.9526 20.4361 23.5957 20.6102 22.8124C20.8626 21.6983 21.2369 20.6278 21.6895 19.7139C22.0463 19.0089 22.8819 17.6685 22.9776 17.6685C23.0037 17.6685 23.0907 18.034 23.1778 18.4866C23.9176 22.5165 26.6157 26.259 30.2626 28.3131C32.1774 29.4011 34.7189 30.1148 36.6424 30.1148C37.3822 30.1148 37.4257 30.1061 37.5998 29.8798C37.7826 29.6448 37.7913 29.5752 37.7478 28.4611C37.652 26.2068 36.8948 23.8655 35.598 21.855C35.1628 21.1761 34.9278 20.9759 34.5883 20.9759C34.3882 20.9759 33.9443 21.4546 33.9443 21.6635C33.9443 21.7679 34.2141 22.2989 34.5448 22.8472C35.1976 23.9265 35.7372 25.2059 36.0245 26.3287C36.2333 27.1468 36.4335 28.609 36.3552 28.6874C36.3291 28.7222 35.8069 28.6613 35.2063 28.5655C32.4559 28.1042 30.0972 26.8857 28.1563 24.9361C26.6941 23.4739 25.6148 21.7505 24.9969 19.8792C24.7532 19.1481 24.4572 17.9209 24.4572 17.6337C24.4572 17.5553 24.7183 17.6859 25.1796 17.9992C26.0239 18.565 27.7037 19.3918 28.6698 19.7052C33.4133 21.2631 38.7922 20.1926 42.5696 16.9374C43.292 16.3194 43.4922 15.9974 43.3617 15.6579C43.2137 15.3011 41.9517 14.1522 41.0204 13.5429C39.532 12.5681 38.0524 11.9415 36.2507 11.5237C35.3804 11.3322 34.9365 11.28 33.6396 11.2452C31.2896 11.1842 29.8013 11.4453 27.7211 12.2809C25.9282 13.0033 25.3624 13.4646 25.5887 14.0216C25.8237 14.5874 26.1545 14.5787 27.373 13.9694C30.9067 12.22 35.0061 12.1503 38.5833 13.7866C39.4537 14.1783 40.7245 14.979 41.2293 15.449L41.647 15.8407L41.3424 16.1105C40.8115 16.5718 39.8454 17.1985 38.9489 17.6511C35.833 19.209 32.3863 19.444 29.0093 18.3213C27.2946 17.7468 25.8846 16.9113 24.3702 15.5535C23.1343 14.4481 22.4728 13.9259 21.6895 13.4211C19.0696 11.7413 15.945 10.9841 12.7159 11.2365Z" fill="#101631"/>
</svg>
